#!OML:ASF G:\JayActor3\Patient Classification 1\Patient 1\Session 6\male.ASF
:FULLY-SPECIFIED
:DEGREES
1212
root 1.89432 16.3997 -13.7325 -337.909 -24.2911 -4.33143
lowerback 33.3889 -2.77941 6.21212
upperback 4.9888 -1.19273 2.23322
thorax -11.5832 -0.807679 -0.44125
lowerneck 8.83107 0.20099 0.733706
upperneck -18.8953 0.346961 0.0981616
head -7.23914 0.0705757 -0.116641
rclavicle 4.74598e-014 2.40032e-014
rhumerus -42.2015 7.16435 -85.8265
rradius 66.0334
rwrist -2.38062
rhand -24.4988 3.21005
rfingers 7.12502
rthumb 1.99566 -26.7604
lclavicle 4.74598e-014 2.40032e-014
lhumerus -50.6039 -11.4748 88.9186
lradius 67.5184
lwrist 39.1297
lhand -29.4791 -7.14356
lfingers 7.12502
lthumb -2.81445 22.8176
rfemur -48.7144 14.2563 19.9519
rtibia 39.9953
rfoot -15.156 -13.5105
rtoes 3.95791
lfemur -76.7247 11.8145 -24.2219
ltibia 96.5178
lfoot 4.44479 1.00376
ltoes 0.517399
1213
root 1.81094 16.3769 -13.5836 -338.054 -24.3834 -4.48279
lowerback 33.9621 -2.66544 6.00867
upperback 4.89759 -1.06541 2.26567
thorax -11.9066 -0.75028 -0.332411
lowerneck 7.44507 0.207963 0.713857
upperneck -17.878 0.351759 0.177354
head -6.66523 0.0733449 -0.0858592
rclavicle 5.5933e-014 -2.52953e-014
rhumerus -42.3283 7.3291 -85.9247
rradius 65.8362
rwrist -2.51334
rhand -24.5963 3.21102
rfingers 7.12502
rthumb 1.90145 -26.7603
lclavicle 5.5933e-014 -2.52953e-014
lhumerus -50.7674 -11.5896 89.0971
lradius 66.9252
lwrist 39.2216
lhand -29.4277 -7.22086
lfingers 7.12502
lthumb -2.76477 22.741
rfemur -48.3863 14.9662 20.1922
rtibia 40.9747
rfoot -15.594 -14.2478
rtoes 4.31363
lfemur -78.3307 11.6289 -23.6957
ltibia 96.8608
lfoot 2.56921 0.790726
ltoes -0.330742
1214
root 1.72837 16.355 -13.4292 -338.278 -24.4352 -4.64963
lowerback 34.5661 -2.5962 5.88773
upperback 4.82028 -0.967507 2.28543
thorax -12.226 -0.708902 -0.269637
lowerneck 5.96011 0.225019 0.692902
upperneck -16.6638 0.370132 0.265943
head -6.02016 0.0845747 -0.0532258
rclavicle -3.85642e-014 1.79652e-014
rhumerus -42.391 7.53788 -86.0534
rradius 65.5031
rwrist -2.61907
rhand -24.6781 3.23177
rfingers 7.12502
rthumb 1.82247 -26.7402
lclavicle -3.85642e-014 1.79652e-014
lhumerus -50.8626 -11.7595 89.2746
lradius 66.215
lwrist 39.2576
lhand -29.2683 -7.26696
lfingers 7.12502
lthumb -2.61086 22.6968
rfemur -47.8627 15.65 20.4967
rtibia 41.8477
rfoot -16.1663 -14.9946
rtoes 4.4447
lfemur -79.6265 11.4156 -23.155
ltibia 96.856
lfoot 0.653005 0.614679
ltoes -1.26896
1215
root 1.6471 16.3332 -13.269 -338.565 -24.4174 -4.79616
lowerback 35.2207 -2.5918 5.86156
upperback 4.68335 -0.915485 2.27457
thorax -12.5177 -0.691155 -0.247735
lowerneck 4.40024 0.244987 0.68323
upperneck -15.2837 0.391362 0.35521
head -5.32017 0.0990565 -0.0225284
rclavicle -6.05672e-014 2.48108e-014
rhumerus -42.3923 7.77202 -86.2054
rradius 65.0542
rwrist -2.6752
rhand -24.7359 3.25409
rfingers 7.12502
rthumb 1.76668 -26.7183
lclavicle -6.05672e-014 2.48108e-014
lhumerus -50.8845 -11.9603 89.4471
lradius 65.4049
lwrist 39.2259
lhand -29.0277 -7.31395
lfingers 7.12502
lthumb -2.37848 22.6525
rfemur -47.1884 16.2373 20.8378
rtibia 42.6412
rfoot -16.895 -15.6972
rtoes 4.36357
lfemur -80.6385 11.1104 -22.6316
ltibia 96.4972
lfoot -1.24694 0.52327
ltoes -2.27368
1216
root 1.56721 16.3101 -13.1043 -338.872 -24.3106 -4.90604
lowerback 35.7124 -2.63708 5.89791
upperback 4.63729 -0.918336 2.26717
thorax -12.759 -0.699014 -0.260573
lowerneck 2.81811 0.261343 0.688861
upperneck -13.4194 0.403454 0.435443
head -4.97719 0.112735 0.0077514
rclavicle -2.27111e-014 4.14031e-014
rhumerus -42.3378 8.01238 -86.3717
rradius 64.5114
rwrist -2.67153
rhand -24.7534 3.27521
rfingers 7.12502
rthumb 1.74976 -26.6974
lclavicle -2.27111e-014 4.14031e-014
lhumerus -50.8209 -12.1597 89.6187
lradius 64.4929
lwrist 39.0794
lhand -28.7283 -7.39004
lfingers 7.12502
lthumb -2.08931 22.5795
rfemur -46.436 16.6658 21.2024
rtibia 43.3803
rfoot -17.7368 -16.2944
rtoes 4.08969
lfemur -81.4217 10.6843 -22.1592
ltibia 95.7749
lfoot -3.07319 0.52339
ltoes -3.49638
